<svg xmlns="http://www.w3.org/2000/svg" width="127.559" height="87.35" viewBox="0 0 127.559 87.35">
  <g id="Smart_Chat_Recovered_" data-name="Smart Chat [Recovered]" transform="translate(-318.55 -204.55)">
    <circle id="Ellipse_11" data-name="Ellipse 11" cx="32.1" cy="32.1" r="32.1" transform="translate(318.8 204.8)" fill="#f3981f" stroke="#010101" stroke-linecap="round" stroke-miterlimit="10" stroke-width="0.5"/>
    <path id="Path_3525" data-name="Path 3525" d="M322.1,240.3l2.6-2.7a11.114,11.114,0,0,0,7.2,2.8,6,6,0,0,0,4.2-1.5,4.857,4.857,0,0,0,1.7-3.8c0-1.5-1-3.2-3.1-5l-2.7-2.4a24.233,24.233,0,0,1-3.7-3.7,4.857,4.857,0,0,1-.7-2.8,7.712,7.712,0,0,1,3-6.1,10.79,10.79,0,0,1,7.2-2.6,14.958,14.958,0,0,1,6.2,1.6l-.9,4.8h-1.2v-.8a3.555,3.555,0,0,0-1.4-2.9,6.342,6.342,0,0,0-3.8-1.1,5.925,5.925,0,0,0-4.1,1.5,4.75,4.75,0,0,0-1.7,3.6,4.7,4.7,0,0,0,.8,2.6,22.214,22.214,0,0,0,3.5,3.5l2.2,1.9c2.5,2.1,3.7,4.1,3.7,6,0,2.4-1.2,4.5-3.5,6.3a13.767,13.767,0,0,1-8.4,2.6A18.176,18.176,0,0,1,322.1,240.3Z" fill="#010101"/>
    <path id="Path_3526" data-name="Path 3526" d="M335.5,246.8l2.7-2.8a5.962,5.962,0,0,0,5.3,3.1,5.25,5.25,0,0,0,4-1.9,10.643,10.643,0,0,0,2.4-5l3.6-18c-.6-.1-1.1-.2-1.3-.2a6.734,6.734,0,0,0-5.2,2.2,7.707,7.707,0,0,0-2.1,5.5l-3.7,1.8a11.02,11.02,0,0,1,4.2-8.2c2.6-2,6-2.9,10.3-2.9h1.5a113.862,113.862,0,0,1,5.1,20.1l12.4-20.1,4.1-.5c-.6,2.6-1.1,5.2-1.7,7.9-.5,2.1-.8,4.9-1.3,7.4-.1.5-.3,1.4-.6,2.6-.1.5-.3,1.4-.5,2.4-.2,1.1-.5,2.5-.7,4.3-.2,1.1-.5,2.6-1,4.5,0,0-.5,2.3-1.1,4.7-1.9,7.4-10.9,38.2-11,38.2h0l12.9-67.2-13,20.8-2,.3v-.6c0-4.9-1.2-11.1-3.6-18.4l-1.6,7.7c-1.9,9.5-6,14.3-12.4,14.3A8.309,8.309,0,0,1,335.5,246.8Z" fill="#010101"/>
    <path id="Path_3527" data-name="Path 3527" d="M401.1,227.5h-.3a17.98,17.98,0,0,1-4,6c-1.6,1.5-3,2.3-4.4,2.3-2.1,0-3.1-1.3-3.1-3.9a13.178,13.178,0,0,1,3.4-8.4,10.741,10.741,0,0,1,8.6-4.2c1.4,0,2.9.1,4.4.2l-1.1,4.3-1.4,7.2a16.862,16.862,0,0,0-.3,2.2.8.8,0,0,0,.9.9c1,0,2.4-1.1,4.4-3.2l-.3,1.4c-2.1,2.3-4.1,3.4-5.8,3.4-1.4,0-2.1-.7-2.1-2.2a11,11,0,0,1,.4-2.5Zm1.2-5.8a9.375,9.375,0,0,0-3.6-.8c-1.8,0-3.2,1.1-4.3,3.4a17.981,17.981,0,0,0-1.9,7.2c0,1.5.4,2.3,1.3,2.3.8,0,2-.9,3.6-2.6a32.2,32.2,0,0,0,4.2-6Z" fill="#010101"/>
    <path id="Path_3528" data-name="Path 3528" d="M410.6,235.8l1.1-4.5,1.4-7.2a13.664,13.664,0,0,0,.2-1.9c0-.8-.3-1.3-.9-1.3-1,0-2.5,1.1-4.4,3.3l.3-1.3c2.3-2.4,4.2-3.6,5.9-3.6q2.1,0,2.1,2.4a11.21,11.21,0,0,1-.3,2.4l-.7,3.5h.2a22.624,22.624,0,0,1,4.1-6c1.6-1.5,3-2.3,4.4-2.3a3.453,3.453,0,0,1,1.8.5l-1.9,2.6a2.916,2.916,0,0,0-1.5-.6c-1.9,0-4.4,2.8-7.6,8.4l-1.1,5.3Z" fill="#010101"/>
    <path id="Path_3529" data-name="Path 3529" d="M430,220.8h-3.4l1-1.1h2.5l.8-4.1,3-.7-1,4.9h5.5l-1.2,1.3c-1.3-.1-2.4-.2-3.4-.2h-1.2l-2,10a13.438,13.438,0,0,0-.3,2.2c0,.8.3,1.2,1,1.2,1.1,0,2.5-.8,4.3-2.3l-.3,1.3c-1.9,1.9-3.7,2.8-5.5,2.8-1.7,0-2.5-.9-2.5-2.8a14.755,14.755,0,0,1,.3-2.6Z" fill="#010101"/>
    <path id="Path_3530" data-name="Path 3530" d="M381.2,260.1" fill="#010101"/>
    <path id="Path_3531" data-name="Path 3531" d="M380.3,258.4" fill="#010101"/>
    <path id="Path_3532" data-name="Path 3532" d="M378.9,248.3" fill="#010101"/>
    <path id="Path_3533" data-name="Path 3533" d="M382.1,257.9" fill="#010101"/>
    <path id="Path_3534" data-name="Path 3534" d="M380.9,237.4" fill="#010101"/>
    <path id="Path_3535" data-name="Path 3535" d="M379.4,251" fill="#010101"/>
    <text id="Chat" transform="translate(385.109 263.068)" fill="#010101" font-size="24" font-family="LucidaCalligraphy-Italic, Lucida Calligraphy" font-style="italic"><tspan x="0" y="0">Chat</tspan></text>
  </g>
</svg>
