<svg xmlns="http://www.w3.org/2000/svg" width="44" height="44" viewBox="0 0 44 44">
  <path id="Combined_shape_347" data-name="Combined shape 347" d="M24.909,44H19.09a2.924,2.924,0,0,1-2.908-2.933V38.577a17.349,17.349,0,0,1-5.468-3.233l-3.44,2a2.879,2.879,0,0,1-1.454.4A2.913,2.913,0,0,1,3.3,36.274L.391,31.191a2.944,2.944,0,0,1,1.066-4.005L4.862,25.2A17.345,17.345,0,0,1,4.546,22a17.717,17.717,0,0,1,.317-3.2L1.457,16.813A2.95,2.95,0,0,1,.391,12.805L3.3,7.725a2.913,2.913,0,0,1,2.52-1.468,2.879,2.879,0,0,1,1.454.4l3.44,2a17.406,17.406,0,0,1,5.468-3.233V2.933A2.924,2.924,0,0,1,19.09,0h5.818a2.925,2.925,0,0,1,2.911,2.933V5.423a17.348,17.348,0,0,1,5.468,3.233l3.44-2a2.879,2.879,0,0,1,1.454-.4A2.913,2.913,0,0,1,40.7,7.725l2.911,5.08a2.952,2.952,0,0,1-1.066,4.008L39.139,18.8a17.608,17.608,0,0,1,.317,3.2,18.025,18.025,0,0,1-.317,3.2l3.406,1.983a2.95,2.95,0,0,1,1.066,4.005L40.7,36.274a2.888,2.888,0,0,1-3.974,1.072l-3.44-2a17.407,17.407,0,0,1-5.468,3.233v2.489A2.925,2.925,0,0,1,24.909,44ZM11.116,31.72h0a14.6,14.6,0,0,0,7.971,4.65V39.6a1.463,1.463,0,0,0,1.457,1.465h2.908A1.461,1.461,0,0,0,24.909,39.6v-3.23a14.579,14.579,0,0,0,7.971-4.65l4.042,2.353a1.452,1.452,0,0,0,1.989-.537L40.364,31a1.472,1.472,0,0,0-.532-2l-4.059-2.362a14.278,14.278,0,0,0,0-9.264l4.059-2.362a1.472,1.472,0,0,0,.532-2l-1.454-2.54a1.452,1.452,0,0,0-1.989-.537L32.88,12.279a14.576,14.576,0,0,0-7.971-4.653V4.4a1.461,1.461,0,0,0-1.454-1.465H20.547A1.463,1.463,0,0,0,19.09,4.4V7.626a14.576,14.576,0,0,0-7.968,4.653L7.08,9.926a1.452,1.452,0,0,0-1.988.537L3.638,13a1.474,1.474,0,0,0,.532,2l4.059,2.362a14.277,14.277,0,0,0,0,9.264L4.17,28.994a1.474,1.474,0,0,0-.532,2l1.454,2.54a1.452,1.452,0,0,0,1.988.537l4.036-2.353ZM22,29.333A7.334,7.334,0,1,1,29.273,22,7.312,7.312,0,0,1,22,29.333ZM22,17.6A4.4,4.4,0,1,0,26.366,22,4.387,4.387,0,0,0,22,17.6Z" fill="#fff" opacity="0.6"/>
</svg>
