<svg xmlns="http://www.w3.org/2000/svg" width="14" height="14" viewBox="0 0 14 14">
  <path id="Combined_shape_347" data-name="Combined shape 347" d="M7.925,14H6.074a.93.93,0,0,1-.925-.933v-.792a5.52,5.52,0,0,1-1.74-1.029l-1.094.637a.916.916,0,0,1-.463.126.927.927,0,0,1-.8-.467L.124,9.924A.937.937,0,0,1,.464,8.65l1.084-.631A5.519,5.519,0,0,1,1.446,7a5.637,5.637,0,0,1,.1-1.019L.464,5.35A.939.939,0,0,1,.124,4.074L1.05,2.458a.927.927,0,0,1,.8-.467.916.916,0,0,1,.463.126l1.094.637a5.538,5.538,0,0,1,1.74-1.029V.933A.93.93,0,0,1,6.074,0H7.925a.931.931,0,0,1,.926.933v.792a5.52,5.52,0,0,1,1.74,1.029l1.094-.637a.916.916,0,0,1,.463-.126.927.927,0,0,1,.8.467l.926,1.616a.939.939,0,0,1-.339,1.275l-1.084.631A5.6,5.6,0,0,1,12.554,7a5.735,5.735,0,0,1-.1,1.02l1.084.631a.939.939,0,0,1,.339,1.274l-.926,1.617a.919.919,0,0,1-1.265.341l-1.094-.637a5.538,5.538,0,0,1-1.74,1.029v.792A.931.931,0,0,1,7.925,14ZM3.537,10.093h0a4.645,4.645,0,0,0,2.536,1.48V12.6a.465.465,0,0,0,.464.466h.925a.465.465,0,0,0,.463-.466V11.572a4.639,4.639,0,0,0,2.536-1.48l1.286.749a.462.462,0,0,0,.633-.171l.463-.808a.468.468,0,0,0-.169-.637l-1.292-.752a4.543,4.543,0,0,0,0-2.947l1.292-.751a.468.468,0,0,0,.169-.637l-.463-.808a.462.462,0,0,0-.633-.171l-1.286.749a4.638,4.638,0,0,0-2.536-1.48V1.4A.465.465,0,0,0,7.463.933H6.538a.465.465,0,0,0-.464.466V2.426a4.638,4.638,0,0,0-2.535,1.48L2.253,3.158a.462.462,0,0,0-.633.171l-.463.808a.469.469,0,0,0,.169.637l1.291.751a4.543,4.543,0,0,0,0,2.947l-1.291.752a.469.469,0,0,0-.169.637l.463.808a.462.462,0,0,0,.633.171l1.284-.749ZM7,9.333A2.333,2.333,0,1,1,9.314,7,2.326,2.326,0,0,1,7,9.333ZM7,5.6A1.4,1.4,0,1,0,8.389,7,1.4,1.4,0,0,0,7,5.6Z" opacity="0.6"/>
</svg>
