
<svg xmlns="http://www.w3.org/2000/svg" width="15.139" height="15" viewBox="0 0 15.139 15">
  <path id="Combined_shape_347" data-name="Combined shape 347" d="M8.925,14.5H7.074a.93.93,0,0,1-.925-.933v-.792a5.52,5.52,0,0,1-1.74-1.029l-1.094.637a.916.916,0,0,1-.463.126.927.927,0,0,1-.8-.467l-.926-1.617A.937.937,0,0,1,1.463,9.15l1.084-.631a5.519,5.519,0,0,1-.1-1.02,5.637,5.637,0,0,1,.1-1.019L1.463,5.85a.939.939,0,0,1-.339-1.275L2.05,2.958a.927.927,0,0,1,.8-.467.916.916,0,0,1,.463.126l1.094.637a5.538,5.538,0,0,1,1.74-1.029V1.434A.93.93,0,0,1,7.074.5H8.925a.931.931,0,0,1,.926.933v.792a5.52,5.52,0,0,1,1.74,1.029l1.094-.637a.916.916,0,0,1,.463-.126.927.927,0,0,1,.8.467l.926,1.616a.939.939,0,0,1-.339,1.275l-1.084.631a5.6,5.6,0,0,1,.1,1.019,5.735,5.735,0,0,1-.1,1.02l1.084.631a.939.939,0,0,1,.339,1.274l-.926,1.617a.919.919,0,0,1-1.265.341l-1.094-.637a5.538,5.538,0,0,1-1.74,1.029v.792A.931.931,0,0,1,8.925,14.5ZM4.537,10.593h0a4.645,4.645,0,0,0,2.536,1.48V13.1a.465.465,0,0,0,.464.466h.925a.465.465,0,0,0,.463-.466V12.073a4.639,4.639,0,0,0,2.536-1.48l1.286.749a.462.462,0,0,0,.633-.171l.463-.808a.468.468,0,0,0-.169-.637l-1.292-.752a4.543,4.543,0,0,0,0-2.947l1.292-.751a.468.468,0,0,0,.169-.637L13.38,3.83a.462.462,0,0,0-.633-.171l-1.286.749a4.638,4.638,0,0,0-2.536-1.48V1.9a.465.465,0,0,0-.463-.466H7.537a.465.465,0,0,0-.464.466V2.927a4.638,4.638,0,0,0-2.535,1.48L3.253,3.659a.462.462,0,0,0-.633.171l-.463.808a.469.469,0,0,0,.169.637l1.291.751a4.543,4.543,0,0,0,0,2.947l-1.291.752a.469.469,0,0,0-.169.637l.463.808a.462.462,0,0,0,.633.171l1.284-.749ZM8,9.833A2.333,2.333,0,1,1,10.314,7.5,2.326,2.326,0,0,1,8,9.833ZM8,6.1A1.4,1.4,0,1,0,9.389,7.5,1.4,1.4,0,0,0,8,6.1Z" transform="translate(-0.43 0)" fill="#fff" stroke="#7c7d7f" stroke-width="1" opacity="0.6"/>
</svg>
