<svg xmlns="http://www.w3.org/2000/svg" width="41.308" height="41" viewBox="0 0 41.308 41">
  <path id="Exclusion_10" data-name="Exclusion 10" d="M23.644,40.5h-5.29a2.658,2.658,0,0,1-2.644-2.667V35.571a15.79,15.79,0,0,1-4.971-2.939L7.613,34.452A2.625,2.625,0,0,1,4,33.478L1.354,28.857a2.68,2.68,0,0,1,.969-3.641l3.1-1.8A15.849,15.849,0,0,1,5.132,20.5a16.018,16.018,0,0,1,.288-2.911l-3.1-1.8a2.682,2.682,0,0,1-.969-3.644L4,7.523a2.625,2.625,0,0,1,3.613-.975L10.74,8.369A15.8,15.8,0,0,1,15.711,5.43V3.167A2.658,2.658,0,0,1,18.355.5h5.29A2.659,2.659,0,0,1,26.29,3.167V5.43a15.79,15.79,0,0,1,4.971,2.939l3.127-1.821A2.625,2.625,0,0,1,38,7.523l2.646,4.618a2.683,2.683,0,0,1-.969,3.644l-3.1,1.8A16.094,16.094,0,0,1,36.87,20.5a16.3,16.3,0,0,1-.288,2.914l3.1,1.8a2.682,2.682,0,0,1,.969,3.641L38,33.478a2.625,2.625,0,0,1-3.613.975l-3.127-1.821a15.8,15.8,0,0,1-4.971,2.939v2.263A2.659,2.659,0,0,1,23.644,40.5ZM11.105,29.337h0a13.268,13.268,0,0,0,7.247,4.228V36.5a1.33,1.33,0,0,0,1.324,1.332h2.644A1.328,1.328,0,0,0,23.644,36.5V33.565a13.249,13.249,0,0,0,7.247-4.228l3.675,2.14a1.32,1.32,0,0,0,1.808-.489L37.7,28.679a1.34,1.34,0,0,0-.483-1.821l-3.69-2.147a12.98,12.98,0,0,0,0-8.422l3.69-2.147a1.34,1.34,0,0,0,.483-1.821l-1.322-2.309a1.32,1.32,0,0,0-1.808-.489l-3.675,2.14a13.252,13.252,0,0,0-7.247-4.23V4.5a1.328,1.328,0,0,0-1.322-1.332H19.679A1.33,1.33,0,0,0,18.355,4.5V7.433a13.252,13.252,0,0,0-7.244,4.23L7.436,9.524a1.32,1.32,0,0,0-1.808.489L4.306,12.322a1.341,1.341,0,0,0,.483,1.821L8.48,16.29a12.98,12.98,0,0,0,0,8.422L4.79,26.858a1.341,1.341,0,0,0-.483,1.821l1.322,2.309a1.32,1.32,0,0,0,1.808.489L11.1,29.338Zm9.9-2.17A6.667,6.667,0,1,1,27.612,20.5,6.647,6.647,0,0,1,21,27.167Z" transform="translate(-0.346 0)" fill="#fff" stroke="rgba(0,0,0,0)" stroke-miterlimit="10" stroke-width="1" opacity="0.6"/>
</svg>
