<svg xmlns="http://www.w3.org/2000/svg" width="13.5" height="20" viewBox="0 0 13.5 20">
  <path id="Combined_shape_516" data-name="Combined shape 516" d="M7.978,20H5.523a.625.625,0,0,1,0-1.249h.613V17.472a6.937,6.937,0,0,1-4-1.778A6.852,6.852,0,0,1,0,11.875H1.228A5.572,5.572,0,0,0,3.213,15a5.636,5.636,0,0,0,7.075,0,5.58,5.58,0,0,0,1.984-3.128H13.5a6.859,6.859,0,0,1-2.135,3.82,6.936,6.936,0,0,1-4,1.778v1.279h.614a.625.625,0,0,1,0,1.249ZM6.75,15a4.341,4.341,0,0,1-4.3-4.375V4.375A4.341,4.341,0,0,1,6.75,0a4.341,4.341,0,0,1,4.3,4.375v6.25A4.341,4.341,0,0,1,6.75,15Zm0-13.75A3.1,3.1,0,0,0,3.682,4.375v6.25a3.069,3.069,0,1,0,6.136,0V4.375A3.1,3.1,0,0,0,6.75,1.25Z" opacity="0.4"/>
</svg>
