<svg xmlns="http://www.w3.org/2000/svg" width="11.498" height="11.995" viewBox="0 0 11.498 11.995">
  <path id="Combined_shape_143" data-name="Combined shape 143" d="M2.274,12A2.318,2.318,0,0,1,0,9.635V4.284H3.344A3.118,3.118,0,0,0,2.8,6.052,3,3,0,0,0,5.741,9.105,3,3,0,0,0,8.683,6.052a3.118,3.118,0,0,0-.544-1.768H11.5V9.635A2.318,2.318,0,0,1,9.223,12Zm1.2-5.944a2.387,2.387,0,0,1,.774-1.768,2.309,2.309,0,0,1,.557-.374,2.19,2.19,0,0,1,1.87,0,2.309,2.309,0,0,1,.557.374,2.387,2.387,0,0,1,.774,1.768A2.314,2.314,0,0,1,5.741,8.4,2.314,2.314,0,0,1,3.475,6.052Zm.6,0A1.71,1.71,0,0,0,5.748,7.79a1.74,1.74,0,0,0,0-3.477A1.709,1.709,0,0,0,4.073,6.052ZM5.741,3a2.867,2.867,0,0,0-2.1.912H0V2.36A2.4,2.4,0,0,1,.96.434V2.975h.466V.169A2.173,2.173,0,0,1,1.755.062V2.975h.466V0h.322V2.975H3.01V0H9.223A2.321,2.321,0,0,1,11.5,2.36V3.909H7.837A2.876,2.876,0,0,0,5.741,3ZM8.5,1.365v1.3a.372.372,0,0,0,.365.378h1.229a.372.372,0,0,0,.365-.378v-1.3a.373.373,0,0,0-.365-.379H8.864A.373.373,0,0,0,8.5,1.365Z" opacity="0.5"/>
</svg>
