<svg xmlns="http://www.w3.org/2000/svg" width="12.005" height="9.001" viewBox="0 0 12.005 9.001">
  <path id="Icon" d="M.967,8.976A7.4,7.4,0,0,0,4.742,10a6.668,6.668,0,0,0,7-6.759,4.807,4.807,0,0,0,1.229-1.176,5.245,5.245,0,0,1-1.415.358A2.32,2.32,0,0,0,12.64,1.162a5.184,5.184,0,0,1-1.564.551A2.559,2.559,0,0,0,9.278,1a2.327,2.327,0,0,0-2.4,2.79A7.2,7.2,0,0,1,1.8,1.412a2.171,2.171,0,0,0,.762,3.034,2.614,2.614,0,0,1-1.116-.284A2.325,2.325,0,0,0,3.425,6.418a2.672,2.672,0,0,1-1.112.039,2.449,2.449,0,0,0,2.3,1.578A5.253,5.253,0,0,1,.967,8.976Z" transform="translate(-0.967 -0.996)" opacity="0.5"/>
</svg>
