<svg xmlns="http://www.w3.org/2000/svg" width="14.996" height="14.996" viewBox="0 0 14.996 14.996">
  <path d="M13.543,14a.454.454,0,0,1-.32-.131L9.595,10.3a5.962,5.962,0,0,1-3.706,1.294A5.849,5.849,0,0,1,0,5.8,5.849,5.849,0,0,1,5.889,0a5.849,5.849,0,0,1,5.889,5.8,5.723,5.723,0,0,1-1.528,3.884l3.614,3.557a.441.441,0,0,1,0,.63A.454.454,0,0,1,13.543,14ZM5.889.891A4.95,4.95,0,0,0,.905,5.8a4.949,4.949,0,0,0,4.983,4.9,4.949,4.949,0,0,0,4.982-4.9A4.949,4.949,0,0,0,5.889.891Z" transform="translate(0.5 0.5)" stroke="#c2c2c2" stroke-width="1" opacity="0.5"/>
</svg>
